<?xml version="1.0" encoding="utf-8"?>
<!-- Generator: Adobe Illustrator 18.1.1, SVG Export Plug-In . SVG Version: 6.00 Build 0)  -->
<!DOCTYPE svg PUBLIC "-//W3C//DTD SVG 1.0//EN" "http://www.w3.org/TR/2001/REC-SVG-20010904/DTD/svg10.dtd">
<svg version="1.0" id="Layer_1" xmlns="http://www.w3.org/2000/svg" xmlns:xlink="http://www.w3.org/1999/xlink" x="0px" y="0px"
	 viewBox="0 0 242 24" enable-background="new 0 0 242 24" xml:space="preserve">
<g>
	<rect x="53" fill-rule="evenodd" clip-rule="evenodd" fill="#D44E5B" width="18" height="5"/>
	<g>
		<rect x="54" y="4" fill-rule="evenodd" clip-rule="evenodd" fill="#D44E5B" width="1" height="19"/>
		<rect x="60" y="4" fill-rule="evenodd" clip-rule="evenodd" fill="#D44E5B" width="1" height="19"/>
		<rect x="49" y="10" fill-rule="evenodd" clip-rule="evenodd" fill="#D44E5B" width="17" height="1"/>
		<rect x="49" y="16" fill-rule="evenodd" clip-rule="evenodd" fill="#D44E5B" width="17" height="1"/>
		
			<rect x="48.5" y="4.5" fill-rule="evenodd" clip-rule="evenodd" fill="none" stroke="#D64D59" stroke-linecap="round" stroke-linejoin="round" stroke-miterlimit="10" width="18" height="18"/>
	</g>
</g>
<g>
	<rect x="72" y="18" fill-rule="evenodd" clip-rule="evenodd" fill="#D44E5B" width="18" height="5"/>
	<g>
		<rect x="88" fill-rule="evenodd" clip-rule="evenodd" fill="#D44E5B" width="1" height="19"/>
		<rect x="82" fill-rule="evenodd" clip-rule="evenodd" fill="#D44E5B" width="1" height="19"/>
		<rect x="77" y="12" fill-rule="evenodd" clip-rule="evenodd" fill="#D44E5B" width="17" height="1"/>
		<rect x="77" y="6" fill-rule="evenodd" clip-rule="evenodd" fill="#D44E5B" width="17" height="1"/>
		
			<rect x="76.5" y="0.5" fill-rule="evenodd" clip-rule="evenodd" fill="none" stroke="#D64D59" stroke-linecap="round" stroke-linejoin="round" stroke-miterlimit="10" width="18" height="18"/>
	</g>
</g>
<g>
	<rect x="96" fill-rule="evenodd" clip-rule="evenodd" fill="#D44E5B" width="5" height="18"/>
	<g>
		<rect x="100" y="10" fill-rule="evenodd" clip-rule="evenodd" fill="#D44E5B" width="19" height="1"/>
		<rect x="100" y="16" fill-rule="evenodd" clip-rule="evenodd" fill="#D44E5B" width="19" height="1"/>
		<rect x="106" y="5" fill-rule="evenodd" clip-rule="evenodd" fill="#D44E5B" width="1" height="17"/>
		<rect x="112" y="5" fill-rule="evenodd" clip-rule="evenodd" fill="#D44E5B" width="1" height="17"/>
		
			<rect x="100.5" y="4.5" fill-rule="evenodd" clip-rule="evenodd" fill="none" stroke="#D64D59" stroke-linecap="round" stroke-linejoin="round" stroke-miterlimit="10" width="18" height="18"/>
	</g>
</g>
<g>
	<rect x="138" y="5" fill-rule="evenodd" clip-rule="evenodd" fill="#D44E5B" width="5" height="18"/>
	<g>
		<rect x="120" y="6" fill-rule="evenodd" clip-rule="evenodd" fill="#D44E5B" width="19" height="1"/>
		<rect x="120" y="12" fill-rule="evenodd" clip-rule="evenodd" fill="#D44E5B" width="19" height="1"/>
		<rect x="132" y="1" fill-rule="evenodd" clip-rule="evenodd" fill="#D44E5B" width="1" height="17"/>
		<rect x="126" y="1" fill-rule="evenodd" clip-rule="evenodd" fill="#D44E5B" width="1" height="17"/>
		
			<rect x="120.5" y="0.5" fill-rule="evenodd" clip-rule="evenodd" fill="none" stroke="#D64D59" stroke-linecap="round" stroke-linejoin="round" stroke-miterlimit="10" width="18" height="18"/>
	</g>
</g>
<g>
	<g>
		<rect x="146" y="8" fill-rule="evenodd" clip-rule="evenodd" fill="#D44E5B" width="19" height="1"/>
		<rect x="146" y="14" fill-rule="evenodd" clip-rule="evenodd" fill="#D44E5B" width="19" height="1"/>
		<rect x="158" y="3" fill-rule="evenodd" clip-rule="evenodd" fill="#D44E5B" width="1" height="17"/>
		<rect x="152" y="3" fill-rule="evenodd" clip-rule="evenodd" fill="#D44E5B" width="1" height="17"/>
		
			<rect x="146.5" y="2.5" fill-rule="evenodd" clip-rule="evenodd" fill="none" stroke="#D64D59" stroke-linecap="round" stroke-linejoin="round" stroke-miterlimit="10" width="18" height="18"/>
	</g>
</g>
<g>
	<rect y="1" fill-rule="evenodd" clip-rule="evenodd" fill="#D44E5B" width="23" height="3"/>
	<g>
		
			<rect x="0.5" y="0.5" fill-rule="evenodd" clip-rule="evenodd" fill="none" stroke="#D64D59" stroke-linecap="round" stroke-linejoin="round" stroke-miterlimit="10" width="22" height="22"/>
	</g>
</g>
<g>
	<rect x="26" y="5" fill-rule="evenodd" clip-rule="evenodd" fill="#D44E5B" width="19" height="4"/>
	<g>
		
			<rect x="24.5" y="0.5" fill-rule="evenodd" clip-rule="evenodd" fill="none" stroke="#D64D59" stroke-linecap="round" stroke-linejoin="round" stroke-miterlimit="10" width="22" height="22"/>
	</g>
</g>
<rect x="24" y="3" fill-rule="evenodd" clip-rule="evenodd" fill="#D44E5B" width="23" height="1"/>
<rect x="146" y="8" fill-rule="evenodd" clip-rule="evenodd" fill="#D44E5B" width="19" height="7"/>
<g>
	<g>
		<rect x="176" y="2" fill-rule="evenodd" clip-rule="evenodd" fill="#D44E5B" width="1" height="19"/>
		<rect x="182" y="2" fill-rule="evenodd" clip-rule="evenodd" fill="#D44E5B" width="1" height="19"/>
		<rect x="171" y="8" fill-rule="evenodd" clip-rule="evenodd" fill="#D44E5B" width="17" height="1"/>
		<rect x="171" y="14" fill-rule="evenodd" clip-rule="evenodd" fill="#D44E5B" width="17" height="1"/>
		
			<rect x="170.5" y="2.5" fill-rule="evenodd" clip-rule="evenodd" fill="none" stroke="#D64D59" stroke-linecap="round" stroke-linejoin="round" stroke-miterlimit="10" width="18" height="18"/>
	</g>
</g>
<rect x="176" y="2" fill-rule="evenodd" clip-rule="evenodd" fill="#D44E5B" width="7" height="19"/>
<g>
	<g>
		<rect x="200" y="2" fill-rule="evenodd" clip-rule="evenodd" fill="#D44E5B" width="1" height="19"/>
		<rect x="206" y="2" fill-rule="evenodd" clip-rule="evenodd" fill="#D44E5B" width="1" height="19"/>
		<rect x="195" y="8" fill-rule="evenodd" clip-rule="evenodd" fill="#D44E5B" width="17" height="1"/>
		<rect x="195" y="14" fill-rule="evenodd" clip-rule="evenodd" fill="#D44E5B" width="17" height="1"/>
		
			<rect x="194.5" y="2.5" fill-rule="evenodd" clip-rule="evenodd" fill="none" stroke="#D64D59" stroke-linecap="round" stroke-linejoin="round" stroke-miterlimit="10" width="18" height="18"/>
	</g>
</g>
<rect x="200" y="8" fill-rule="evenodd" clip-rule="evenodd" fill="#D44E5B" width="7" height="7"/>
<g>
	<rect x="220" y="5" opacity="0.5" fill-rule="evenodd" clip-rule="evenodd" fill="#D44E5B" width="19" height="4"/>
	<g>
		
			<rect x="218.5" y="0.5" fill-rule="evenodd" clip-rule="evenodd" fill="none" stroke="#D64D59" stroke-linecap="round" stroke-linejoin="round" stroke-miterlimit="10" width="22" height="22"/>
	</g>
</g>
<rect x="218" y="3" fill-rule="evenodd" clip-rule="evenodd" fill="#D44E5B" width="23" height="1"/>
<rect x="223" y="11" fill-rule="evenodd" clip-rule="evenodd" fill="#D44E5B" width="19" height="4"/>
<rect x="220" y="17" opacity="0.5" fill-rule="evenodd" clip-rule="evenodd" fill="#D44E5B" width="19" height="4"/>
</svg>
